HIERARCHY
ROOT root
{
	OFFSET 0.000000 0.000000 0.000000
	CHANNELS 6 Xposition Yposition Zposition Zrotation Yrotation Xrotation
	JOINT lhip
	{
		OFFSET 0.058581 -0.082280 -0.017664
		CHANNELS 3 Zrotation Yrotation Xrotation
		JOINT lknee
		{
			OFFSET 0.043451 -0.386469 0.008037
			CHANNELS 3 Zrotation Yrotation Xrotation
			JOINT lankle
			{
				OFFSET -0.014790 -0.426874 -0.037428
				CHANNELS 3 Zrotation Yrotation Xrotation
				JOINT ltoe
				{
					OFFSET 0.041054 -0.060286 0.122042
					CHANNELS 3 Zrotation Yrotation Xrotation
					End Site
					{
						OFFSET 0.000000 0.000000 0.000000
					}
				}
			}
		}
	}
	JOINT rhip
	{
		OFFSET -0.060310 -0.090513 -0.013543
		CHANNELS 3 Zrotation Yrotation Xrotation
		JOINT rknee
		{
			OFFSET -0.043257 -0.383688 -0.004843
			CHANNELS 3 Zrotation Yrotation Xrotation
			JOINT rankle
			{
				OFFSET 0.019056 -0.420046 -0.034562
				CHANNELS 3 Zrotation Yrotation Xrotation
				JOINT rtoe
				{
					OFFSET -0.034840 -0.062106 0.130323
					CHANNELS 3 Zrotation Yrotation Xrotation
					End Site
					{
						OFFSET 0.000000 0.000000 0.000000
					}
				}
			}
		}
	}
	JOINT lowerback
	{
		OFFSET 0.004439 0.124404 -0.038385
		CHANNELS 3 Zrotation Yrotation Xrotation
		JOINT upperback
		{
			OFFSET 0.004488 0.137956 0.026820
			CHANNELS 3 Zrotation Yrotation Xrotation
			JOINT chest
			{
				OFFSET -0.002265 0.056032 0.002855
				CHANNELS 3 Zrotation Yrotation Xrotation
				JOINT lowerneck
				{
					OFFSET -0.013390 0.211636 -0.033468
					CHANNELS 3 Zrotation Yrotation Xrotation
					JOINT upperneck
					{
						OFFSET 0.010113 0.088937 0.050410
						CHANNELS 3 Zrotation Yrotation Xrotation
						End Site
						{
							OFFSET 0.000000 0.000000 0.000000
						}
					}
				}
				JOINT lclavicle
				{
					OFFSET 0.071702 0.114000 -0.018898
					CHANNELS 3 Zrotation Yrotation Xrotation
					JOINT lshoulder
					{
						OFFSET 0.122921 0.045205 -0.019046
						CHANNELS 3 Zrotation Yrotation Xrotation
						JOINT lelbow
						{
							OFFSET 0.255332 -0.015649 -0.022946
							CHANNELS 3 Zrotation Yrotation Xrotation
							JOINT lwrist
							{
								OFFSET 0.265709 0.012698 -0.007375
								CHANNELS 3 Zrotation Yrotation Xrotation
								End Site
								{
									OFFSET 0.000000 0.000000 0.000000
								}
							}
						}
					}
				}
				JOINT rclavicle
				{
					OFFSET -0.082954 0.112472 -0.023707
					CHANNELS 3 Zrotation Yrotation Xrotation
					JOINT rshoulder
					{
						OFFSET -0.113228 0.046853 -0.008472
						CHANNELS 3 Zrotation Yrotation Xrotation
						JOINT relbow
						{
							OFFSET -0.260127 -0.014369 -0.031269
							CHANNELS 3 Zrotation Yrotation Xrotation
							JOINT rwrist
							{
								OFFSET -0.269108 0.006794 -0.006027
								CHANNELS 3 Zrotation Yrotation Xrotation
								End Site
								{
									OFFSET 0.000000 0.000000 0.000000
								}
							}
						}
					}
				}
			}
		}
	}
}
MOTION
Frames: 5
Frame Time: 0.033333
0.337905 0.165016 0.999638 84.672663 -0.060277 95.318077 4.263953 3.765080 -1.106662 -4.074592 1.392091 -6.586875 0.432371 8.376505 -1.403109 0.000000 -0.000000 0.000000 -5.603599 -4.796172 -6.384158 1.135838 -3.046808 1.295839 6.508178 -3.985725 -2.681746 0.000000 -0.000000 0.000000 -4.738261 4.382333 3.377891 1.913281 -2.779554 3.644854 2.015999 3.187125 -2.461785 1.531310 1.326269 -2.259285 7.897464 -0.142758 -5.513778 -7.613998 -16.797577 -9.437239 -57.573413 -42.331111 23.116282 65.915246 -67.687844 -54.995888 18.096664 -8.970371 -13.941668 6.055273 18.606982 -3.614529 45.368921 34.661420 7.589348 -93.633045 71.933805 -95.035964 -16.958731 8.328119 -26.761290 
0.337717 0.165195 0.999846 84.570460 -0.089065 94.908322 4.240849 3.795768 -0.737636 -4.096274 1.356425 -6.470735 0.484536 8.461493 -1.501429 0.000000 -0.000000 0.000000 -5.653896 -4.748921 -6.169259 1.063178 -2.903950 1.669694 6.517317 -4.015039 -2.887718 0.000000 -0.000000 0.000000 -4.733386 4.397470 3.228927 1.835790 -2.757593 3.724544 1.944831 3.173218 -2.572357 1.724741 1.434862 -1.972192 7.859251 -0.246719 -5.056103 -7.532597 -16.913976 -9.490794 -57.823568 -42.353069 23.452283 64.676453 -67.246185 -53.907820 18.049827 -8.884061 -14.067961 5.832025 18.846887 -3.615425 45.639571 34.470767 8.026111 -91.723168 71.485581 -93.334391 -17.045289 8.312085 -27.207217 
0.337423 0.165320 1.000100 84.441519 -0.139692 94.528125 4.175315 3.783297 -0.452915 -4.078390 1.315305 -6.274689 0.628729 8.597256 -1.615140 0.000000 -0.000000 0.000000 -5.686040 -4.714505 -6.040697 0.934568 -2.672632 2.089758 6.523030 -4.088548 -3.145372 0.000000 -0.000000 0.000000 -4.885596 4.388033 3.142226 1.881551 -2.804575 3.668351 1.953794 3.145274 -2.511435 1.752362 1.334921 -1.831685 7.840117 -0.055216 -4.499443 -7.509041 -16.766164 -9.492877 -58.121067 -42.392043 23.651729 63.859347 -67.154998 -53.059786 18.056036 -8.615210 -14.231813 6.024568 18.746467 -3.473616 45.552235 34.861174 8.137158 -89.886544 71.574458 -91.384335 -16.943067 8.177507 -27.053548 
0.337104 0.165455 1.000309 84.289422 -0.137536 94.198021 4.185589 3.838503 -0.269167 -4.096866 1.299271 -5.979042 0.695794 8.669554 -1.773988 0.000000 -0.000000 0.000000 -5.706478 -4.630671 -5.926565 0.887138 -2.612833 2.461193 6.505511 -4.077415 -3.334112 0.000000 -0.000000 0.000000 -4.858821 4.371546 3.019178 1.789450 -2.740997 3.811286 1.854356 3.172912 -2.562635 1.948785 1.419452 -1.697037 7.735859 -0.200114 -4.242491 -7.464096 -16.757052 -9.507074 -58.384238 -42.313445 23.898017 63.352284 -67.052936 -52.538350 18.086144 -8.665043 -14.263642 5.774911 18.885663 -3.527784 45.873653 34.574742 8.479920 -89.807677 71.368547 -91.273915 -17.270361 8.215424 -27.079943 
0.336800 0.165650 1.000464 84.193492 -0.149907 93.917723 4.138458 3.835400 -0.077703 -4.044812 1.356535 -5.828502 0.751893 8.708609 -1.849872 0.000000 -0.000000 0.000000 -5.736883 -4.610006 -5.824988 0.829865 -2.564266 2.756780 6.510880 -4.014614 -3.462396 0.000000 -0.000000 0.000000 -4.885195 4.350112 2.831152 1.752101 -2.769760 4.179602 1.756397 3.186413 -2.738332 2.016637 1.321071 -1.631206 7.745318 -0.289516 -4.118563 -7.553254 -16.707929 -9.503112 -58.519829 -42.206393 24.100104 63.063045 -67.029366 -52.358867 17.885303 -8.613791 -14.304424 5.812264 18.896627 -3.537652 45.945622 34.489703 8.680352 -89.765875 71.406008 -91.320792 -17.111115 8.220840 -27.154286 
